<?xml version="1.0" standalone="no"?>
<!DOCTYPE svg PUBLIC "-//W3C//DTD SVG 1.1//EN" "http://www.w3.org/Graphics/SVG/1.1/DTD/svg11.dtd" >
<svg xmlns="http://www.w3.org/2000/svg">
<metadata>
<json>
<![CDATA[
{
	"fontFamily": "Komus3",
	"majorVersion": 1,
	"minorVersion": 0,
	"version": "Version 1.0",
	"fontId": "Komus3",
	"psName": "Komus3",
	"subFamily": "Regular",
	"fullName": "Komus3",
	"description": "Font generated by IcoMoon."
}
]]>
</json>
</metadata>
<defs>
<font id="Komus3" horiz-adv-x="1024">
<font-face units-per-em="1024" ascent="960" descent="-64" />
<missing-glyph horiz-adv-x="1024" />
<glyph unicode="&#x20;" horiz-adv-x="512" d="" />
<glyph unicode="&#xe900;" glyph-name="Icon-font-01" data-tags="Icon font-01" d="M512 511.39l458.362 253.562c-43.886 68.267-117.029 112.152-204.8 112.152h-512c-87.771 4.876-160.914-39.010-204.8-102.4 9.752-9.752 463.238-263.314 463.238-263.314zM512 301.714l-502.248 277.943v-336.457c0-136.533 107.276-243.81 243.81-243.81h512c136.533 0 243.81 107.276 243.81 243.81v331.581l-497.371-273.067z" />
<glyph unicode="&#xe901;" glyph-name="Icon-font-02" data-tags="Icon font-02" d="M970.752 349.696l-303.104 528.384c-40.96 69.632-126.976 94.208-196.608 53.248l-348.16-200.704c-69.632-40.96-94.208-131.072-53.248-200.704l303.104-528.384c40.96-69.632 126.976-94.208 196.608-53.248l348.16 200.704c69.632 40.96 94.208 131.072 53.248 200.704zM700.416 124.416c-20.48-12.288-49.152-4.096-61.44 16.384s-4.096 49.152 16.384 61.44c20.48 12.288 49.152 4.096 61.44-16.384 12.288-24.576 4.096-49.152-16.384-61.44zM700.416 325.12l-176.128-102.4c-40.96-24.576-94.208-8.192-118.784 32.768l-143.36 253.952c-24.576 40.96-8.192 94.208 32.768 118.784l176.128 102.4c40.96 24.576 94.208 8.192 118.784-32.768l143.36-253.952c24.576-40.96 8.192-94.208-32.768-118.784z" />
<glyph unicode="&#xe902;" glyph-name="Icon-font-03" data-tags="Icon font-03" d="M791.558 300.368c43.975 69.104 69.104 144.491 69.104 232.442 0 232.442-188.466 420.908-427.19 420.908s-427.19-188.466-427.19-420.908c0-232.442 188.466-420.908 427.19-420.908 81.669 0 150.773 18.847 213.595 56.54l226.16-219.877 131.926 131.926-213.595 219.877zM439.755 300.368c-131.926 0-238.724 100.515-238.724 232.442 0 125.644 106.798 232.442 238.724 232.442s238.724-100.515 238.724-232.442c0-131.926-106.798-232.442-238.724-232.442z" />
<glyph unicode="&#xe903;" glyph-name="Icon-font-04" data-tags="Icon font-04" d="M708.923-79.754c-31.508 0-63.015 15.754-86.646 39.385l-409.6 472.615 409.6 472.615c39.385 47.262 118.154 55.138 165.415 7.877 47.262-39.385 55.138-110.277 15.754-165.415l-275.692-315.077 275.692-315.077c39.385-47.262 39.385-126.031-7.877-165.415-31.508-15.754-55.138-31.508-86.646-31.508z" />
<glyph unicode="&#xe904;" glyph-name="Icon-font-05" data-tags="Icon font-05" d="M330.831-79.754c31.508 0 63.015 15.754 86.646 39.385l409.6 472.615-409.6 472.615c-39.385 47.262-110.277 55.138-165.415 7.877-47.262-39.385-47.262-110.277-7.877-165.415l275.692-315.077-275.692-315.077c-39.385-47.262-39.385-126.031 7.877-165.415 23.631-15.754 55.138-31.508 78.769-31.508z" />
<glyph unicode="&#xe905;" glyph-name="Icon-font-06" data-tags="Icon font-06" d="M158.255 131.491c-37.236 0-74.473 18.618-102.4 46.545-55.855 55.855-46.545 148.945 9.309 195.491l465.455 418.909 465.455-418.909c55.855-55.855 65.164-139.636 9.309-195.491s-139.636-65.164-195.491-9.309l-279.273 251.345-279.273-251.345c-27.927-27.927-65.164-37.236-93.091-37.236z" />
<glyph unicode="&#xe906;" glyph-name="Icon-font-07" data-tags="Icon font-07" d="M530.618 94.255l-465.455 418.909c-55.855 55.855-65.164 148.945-9.309 204.8 46.545 55.855 139.636 55.855 195.491 9.309l279.273-251.345 279.273 251.345c55.855 46.545 139.636 46.545 195.491-9.309s46.545-148.945-9.309-195.491l-465.455-428.218z" />
<glyph unicode="&#xe907;" glyph-name="Icon-font-08" data-tags="Icon font-08" horiz-adv-x="1027" d="M544.405-28.354v0c25.924 9.722 87.494 25.924 149.063 25.924 152.304 0 281.924-32.405 285.165-35.646 9.722-3.241 19.443 0 29.165 3.241 6.481 6.481 12.962 16.203 12.962 25.924v755.038c0 16.203-9.722 25.924-22.684 29.165 0 0-12.962 3.241-38.886 6.481-3.241 0-3.241 0-6.481 0-16.203 0-29.165-9.722-29.165-25.924-3.241-16.203 6.481-32.405 25.924-35.646 3.241 0 9.722 0 12.962-3.241v-686.987c-45.367 9.722-155.544 25.924-262.481 25.924-74.532 0-145.823-22.684-178.228-32.405-25.924 9.722-87.494 32.405-162.025 32.405-110.177 0-230.076-16.203-281.924-25.924v693.468c35.646 9.722 158.785 29.165 275.443 29.165 55.089 0 103.696-16.203 129.62-25.924v-625.418c0-9.722 6.481-22.684 16.203-25.924 9.722-6.481 22.684-6.481 32.405 0 6.481 3.241 178.228 106.937 333.772 158.785 12.962 3.241 22.684 16.203 22.684 29.165v661.063c0 9.722-6.481 19.443-12.962 25.924-6.481 3.241-9.722 6.481-16.203 6.481-3.241 0-6.481 0-9.722-3.241-142.582-51.848-268.962-116.658-275.443-119.899-16.203-3.241-19.443-9.722-22.684-19.443 0-6.481 0-16.203 3.241-22.684 6.481-9.722 16.203-12.962 25.924-12.962 6.481 0 12.962 3.241 16.203 3.241 0 0 97.215 45.367 223.595 97.215v-596.253c-106.937-38.886-217.114-93.975-278.684-129.62v593.013c0 12.962-6.481 22.684-16.203 29.165-6.481 3.241-81.013 38.886-174.987 38.886-162.025 0-314.329-35.646-320.81-35.646-9.722-6.481-19.443-19.443-19.443-32.405v-755.038c0-9.722 3.241-19.443 12.962-25.924 6.481-3.241 12.962-6.481 19.443-6.481 3.241 0 6.481 0 9.722 0 6.481 0 152.304 35.646 304.608 35.646 55.089 0 103.696-16.203 129.62-25.924v0c0-16.203 12.962-25.924 25.924-25.924h9.722c9.722 3.241 22.684 12.962 22.684 29.165z" />
<glyph unicode="&#xe908;" glyph-name="Icon-font-09" data-tags="Icon font-09" d="M597.884 418.271c-23.123 0-46.245-19.819-46.245-46.245 0-23.123 19.819-42.942 46.245-42.942 23.123 0 42.942 19.819 42.942 42.942 3.303 26.426-16.516 46.245-42.942 46.245zM597.884 576.826c-23.123 0-46.245-19.819-46.245-46.245 0-23.123 19.819-42.942 46.245-42.942 23.123 0 42.942 19.819 42.942 42.942 3.303 26.426-16.516 46.245-42.942 46.245zM396.387 841.084h247.742v-89.187h-247.742v89.187zM439.329 576.826c-23.123 0-46.245-19.819-46.245-46.245 0-23.123 19.819-42.942 46.245-42.942 23.123 0 42.942 19.819 42.942 42.942 3.303 26.426-16.516 46.245-42.942 46.245zM756.439 946.787c-23.123 0-42.942-19.819-42.942-46.245v-105.703c0-23.123 19.819-42.942 42.942-42.942s46.245 19.819 46.245 42.942v109.006c0 23.123-19.819 42.942-46.245 42.942zM799.381 375.329c0-23.716-19.226-42.942-42.942-42.942s-42.942 19.226-42.942 42.942c0 23.716 19.226 42.942 42.942 42.942s42.942-19.226 42.942-42.942zM799.381 533.884c0-23.716-19.226-42.942-42.942-42.942s-42.942 19.226-42.942 42.942c0 23.716 19.226 42.942 42.942 42.942s42.942-19.226 42.942-42.942zM323.716 216.774c0-23.716-19.226-42.942-42.942-42.942s-42.942 19.226-42.942 42.942c0 23.716 19.226 42.942 42.942 42.942s42.942-19.226 42.942-42.942zM323.716 375.329c0-23.716-19.226-42.942-42.942-42.942s-42.942 19.226-42.942 42.942c0 23.716 19.226 42.942 42.942 42.942s42.942-19.226 42.942-42.942zM439.329 418.271c-23.123 0-46.245-19.819-46.245-46.245 0-23.123 19.819-42.942 46.245-42.942 23.123 0 42.942 19.819 42.942 42.942 3.303 26.426-16.516 46.245-42.942 46.245zM323.716 533.884c0-23.716-19.226-42.942-42.942-42.942s-42.942 19.226-42.942 42.942c0 23.716 19.226 42.942 42.942 42.942s42.942-19.226 42.942-42.942zM26.426 745.29v-687.071c0-52.852 42.942-95.794 95.794-95.794h792.774c52.852 0 95.794 42.942 95.794 95.794v687.071c0 52.852-42.942 95.794-95.794 95.794h-42.942v-89.187h52.852v-703.587h-809.29v703.587h52.852v89.187h-46.245c-52.852 0-95.794-42.942-95.794-95.794zM327.019 903.845c0 23.123-19.819 42.942-46.245 42.942s-42.942-19.819-42.942-42.942v-105.703c0-23.123 19.819-42.942 46.245-42.942s46.245 19.819 46.245 42.942v105.703zM439.329 259.716c-23.123 0-46.245-19.819-46.245-42.942s19.819-46.245 46.245-46.245c23.123 0 42.942 19.819 42.942 46.245 3.303 23.123-16.516 42.942-42.942 42.942z" />
<glyph unicode="&#xe909;" glyph-name="Icon-font-10" data-tags="Icon font-10" d="M890.092 727.631v39.385c0 47.262-39.385 90.585-90.585 90.585h-657.723c-74.831 0-137.846-63.015-137.846-137.846v-555.323c0 0 0-126.031 126.031-126.031h787.692c0 0 94.523 3.938 94.523 126.031v496.246c0 35.446-31.508 66.954-66.954 66.954h-55.138zM133.908 97.477c-63.015 0-63.015 63.015-63.015 63.015v547.446c0 47.262 35.446 82.708 82.708 82.708h630.154c23.631 0 43.323-19.692 43.323-43.323v-586.831c0-27.569 7.877-47.262 19.692-63.015h-712.862zM165.415 664.615h567.138c15.754 0 31.508-15.754 31.508-31.508v0c0-15.754-15.754-31.508-31.508-31.508h-567.138c-15.754 0-31.508 15.754-31.508 31.508v0c0 19.692 11.815 31.508 31.508 31.508zM512 286.523h157.538c15.754 0 31.508-15.754 31.508-31.508v0c0-15.754-15.754-31.508-31.508-31.508h-157.538c-15.754 0-31.508 15.754-31.508 31.508v0c0 19.692 11.815 31.508 31.508 31.508zM512 412.554h220.554c15.754 0 31.508-15.754 31.508-31.508v0c0-15.754-15.754-31.508-31.508-31.508h-220.554c-15.754 0-31.508 15.754-31.508 31.508v0c0 19.692 11.815 31.508 31.508 31.508zM512 538.585h220.554c15.754 0 31.508-15.754 31.508-31.508v0c0-15.754-15.754-31.508-31.508-31.508h-220.554c-15.754 0-31.508 15.754-31.508 31.508v0c0 19.692 11.815 31.508 31.508 31.508zM165.415 538.585h220.554c15.754 0 31.508-15.754 31.508-31.508v-252.062c0-15.754-15.754-31.508-31.508-31.508h-220.554c-15.754 0-31.508 15.754-31.508 31.508v252.062c0 19.692 11.815 31.508 31.508 31.508z" />
<glyph unicode="&#xe90a;" glyph-name="Icon-font-11" data-tags="Icon font-11" d="M909.112 320.624c0 14.985-12.488 27.473-27.473 27.473s-27.473-12.488-27.473-27.473c0-37.463-32.468-69.932-69.932-69.932-14.985 0-27.473-12.488-27.473-27.473s12.488-27.473 27.473-27.473c67.434 2.498 124.878 57.444 124.878 124.878zM806.712 782.673c-4.995 7.493-14.985 12.488-22.478 12.488s-17.483-4.995-22.478-12.488c0 0-49.951-82.42-99.902-179.824-2.498-7.493-4.995-14.985-2.498-19.98 2.498-7.493 7.493-12.488 12.488-14.985s7.493-2.498 12.488-2.498c9.99 0 19.98 4.995 24.976 14.985 27.473 54.946 54.946 102.4 74.927 137.366 79.922-137.366 169.834-319.688 169.834-394.615 0-94.907-77.424-169.834-169.834-169.834-22.478 0-44.956 4.995-67.434 12.488-2.498 2.498-7.493 2.498-9.99 2.498-9.99 0-19.98-7.493-24.976-17.483-4.995-14.985 0-29.971 14.985-34.966 27.473-12.488 57.444-17.483 87.415-17.483 124.878 0 224.78 99.902 224.78 224.78 0 129.873-192.312 447.063-202.302 459.551zM634.38 320.624c0 14.985-12.488 27.473-27.473 27.473s-27.473-12.488-27.473-27.473c0-37.463-32.468-69.932-69.932-69.932-14.985 0-27.473-12.488-27.473-27.473s12.488-27.473 27.473-27.473c69.932 2.498 124.878 57.444 124.878 124.878zM531.98 782.673c-4.995 7.493-14.985 12.488-22.478 12.488-9.99 0-17.483-4.995-22.478-12.488 0 0-49.951-82.42-99.902-179.824-2.498-7.493-4.995-14.985-2.498-19.98 2.498-7.493 7.493-12.488 12.488-14.985s7.493-2.498 12.488-2.498c9.99 0 19.98 4.995 24.976 14.985 27.473 54.946 54.946 102.4 74.927 137.366 79.922-137.366 169.834-319.688 169.834-394.615 0-94.907-77.424-169.834-169.834-169.834-24.976 0-47.454 4.995-69.932 14.985-2.498 2.498-7.493 2.498-9.99 2.498-9.99 0-19.98-7.493-24.976-14.985-2.498-7.493-2.498-14.985 0-19.98 2.498-7.493 7.493-12.488 14.985-14.985 29.971-12.488 59.941-19.98 92.41-19.98 124.878 0 224.78 99.902 224.78 224.78-2.498 127.376-194.81 444.566-204.8 457.054zM259.746 782.673c-4.995 7.493-14.985 12.488-22.478 12.488-9.99 0-17.483-4.995-22.478-12.488-9.99-12.488-204.8-329.678-204.8-462.049 0-122.38 99.902-224.78 224.78-224.78s224.78 99.902 224.78 224.78c2.498 132.371-192.312 449.561-199.805 462.049zM407.102 320.624c0-94.907-77.424-169.834-169.834-169.834-94.907 0-169.834 77.424-169.834 169.834 0 74.927 89.912 257.249 169.834 394.615 77.424-134.868 169.834-317.19 169.834-394.615zM209.795 223.22c0-14.985 12.488-27.473 27.473-27.473 69.932 0 124.878 54.946 124.878 124.878 0 14.985-12.488 27.473-27.473 27.473s-27.473-12.488-27.473-27.473c0-37.463-32.468-69.932-69.932-69.932-17.483 0-27.473-12.488-27.473-27.473z" />
<glyph unicode="&#xe90b;" glyph-name="Icon-font-12" data-tags="Icon font-12" horiz-adv-x="991" d="M691.532 946.701h-664.935l398.961-531.948v-458.805h132.987v458.805l398.961 531.948h-265.974zM492.052 547.74l-199.481 265.974h398.961l-199.481-265.974z" />
<glyph unicode="&#xe90c;" glyph-name="Icon-font-13" data-tags="Icon font-13" d="M448 76.8l-396.8 313.6c-38.4 32-44.8 96-12.8 134.4s96 51.2 134.4 12.8l249.6-198.4 390.4 441.6c32 38.4 96 44.8 134.4 6.4 38.4-32 44.8-96 6.4-134.4l-505.6-576z" />
<glyph unicode="&#xe90d;" glyph-name="Icon-font-14" data-tags="Icon font-14" d="M450.56 69.12l-378.88 286.72c-61.44 51.2-81.92 143.36-30.72 215.040 61.44 71.68 153.6 81.92 215.040 30.72l153.6-122.88 276.48 307.2c61.44 61.44 163.84 71.68 225.28 10.24s61.44-153.6 10.24-215.040l-471.040-512z" />
<glyph unicode="&#xe90e;" glyph-name="Icon-font-15" data-tags="Icon font-15" d="M527.754 125.046l-480.492 488.369c-39.385 39.385-39.385 102.4 0 141.785s102.4 39.385 141.785 0l338.708-346.585 338.708 346.585c39.385 39.385 102.4 39.385 141.785 0s39.385-102.4 0-141.785l-480.492-488.369z" />
<glyph unicode="&#xe90f;" glyph-name="Icon-font-16" data-tags="Icon font-16" d="M929.477 140.8c-23.631 0-47.262 7.877-70.892 31.508l-338.708 338.708-338.708-346.585c-39.385-31.508-102.4-39.385-141.785 0-31.508 39.385-39.385 102.4 0 141.785l480.492 488.369 480.492-488.369c39.385-39.385 39.385-102.4 0-141.785-23.631-15.754-47.262-23.631-70.892-23.631z" />
<glyph unicode="&#xe910;" glyph-name="Icon-font-17" data-tags="Icon font-17" horiz-adv-x="1047" d="M1000.55 147.053l-304.855 304.855 304.855 297.038c46.901 46.901 46.901 117.252 0 164.153s-117.252 46.901-164.153 0l-304.855-297.038-304.855 304.855c-46.901 39.084-117.252 39.084-164.153 0-46.901-46.901-46.901-117.252 0-164.153l297.038-297.038-312.672-304.855c-46.901-54.718-46.901-125.069-7.817-171.969 23.45-23.45 54.718-39.084 85.985-39.084s62.534 7.817 78.168 31.267l320.489 304.855 312.672-312.672c23.45-23.45 54.718-31.267 85.985-31.267s62.534 7.817 85.985 31.267c39.084 54.718 39.084 132.885-7.817 179.786z" />
<glyph unicode="&#xe911;" glyph-name="Icon-font-18" data-tags="Icon font-18" d="M715.397 455.014l252.493 238.466c56.11 56.11 56.11 140.274 0 196.384s-140.274 56.11-196.384 0l-252.493-238.466-252.493 252.493c-56.11 56.11-140.274 56.11-196.384 0s-56.11-140.274 0-196.384l252.493-252.493-252.493-238.466c-56.11-56.11-56.11-140.274 0-196.384 14.027-42.082 56.11-56.11 98.192-56.11s70.137 14.027 98.192 42.082l252.493 252.493 252.493-252.493c28.055-28.055 56.11-42.082 98.192-42.082s70.137 14.027 98.192 42.082c56.11 56.11 56.11 140.274 0 196.384l-252.493 252.493z" />
<glyph unicode="&#xe912;" glyph-name="Icon-font-19" data-tags="Icon font-19" d="M160.914 170.057c-43.886 0-73.143 14.629-102.4 43.886-58.514 58.514-43.886 146.286 14.629 204.8l365.714 336.457c58.514 58.514 146.286 58.514 204.8 0l365.714-336.457c58.514-58.514 58.514-146.286 14.629-204.8-58.514-58.514-146.286-58.514-204.8-14.629l-292.571 248.686-263.314-248.686c-29.257-14.629-58.514-29.257-102.4-29.257z" />
<glyph unicode="&#xe913;" glyph-name="Icon-font-20" data-tags="Icon font-20" d="M526.629 170.057c-29.257 0-73.143 14.629-102.4 43.886l-351.086 336.457c-58.514 43.886-73.143 146.286-14.629 204.8s146.286 58.514 204.8 0l263.314-234.057 263.314 234.057c58.514 58.514 146.286 58.514 204.8 0s43.886-146.286-14.629-204.8l-351.086-336.457c-29.257-29.257-58.514-43.886-102.4-43.886z" />
<glyph unicode="&#xe914;" glyph-name="Icon-font-21" data-tags="Icon font-21" d="M179.2 742.4l198.4 211.2 441.6-505.6-505.6-524.8-76.8 83.2 300.8 326.4-358.4 409.6z" />
<glyph unicode="&#xe915;" glyph-name="Icon-font-22" data-tags="Icon font-22" d="M96.711 886.044c-45.511 0-85.333-39.822-85.333-85.333s39.822-85.333 85.333-85.333c45.511 0 85.333 39.822 85.333 85.333s-39.822 85.333-85.333 85.333v0zM96.711 544.711c-45.511 0-85.333-39.822-85.333-85.333s39.822-85.333 85.333-85.333c45.511 0 85.333 39.822 85.333 85.333s-39.822 85.333-85.333 85.333v0zM96.711 203.378c-45.511 0-85.333-39.822-85.333-85.333s39.822-85.333 85.333-85.333c45.511 0 85.333 39.822 85.333 85.333s-39.822 85.333-85.333 85.333v0zM950.044 715.378h-512c-45.511 0-85.333 39.822-85.333 85.333s39.822 85.333 85.333 85.333h512c45.511 0 85.333-39.822 85.333-85.333s-39.822-85.333-85.333-85.333zM950.044 374.044h-512c-45.511 0-85.333 39.822-85.333 85.333s39.822 85.333 85.333 85.333h512c45.511 0 85.333-39.822 85.333-85.333s-39.822-85.333-85.333-85.333zM950.044 32.711h-512c-45.511 0-85.333 39.822-85.333 85.333s39.822 85.333 85.333 85.333h512c45.511 0 85.333-39.822 85.333-85.333s-39.822-85.333-85.333-85.333z" />
<glyph unicode="&#xe916;" glyph-name="Icon-font-23" data-tags="Icon font-23" horiz-adv-x="968" d="M930.341 160.78l-143.61 156.098c-31.22 31.22-74.927 31.22-106.146 0l-74.927-74.927c-6.244 0-12.488 6.244-12.488 6.244-43.707 24.976-106.146 62.439-174.829 137.366-68.683 68.683-99.902 137.366-124.878 187.317 0 6.244-6.244 12.488-6.244 12.488l74.927 74.927c31.22 31.22 31.22 81.171 0 112.39l-149.854 156.098c-31.22 31.22-74.927 24.976-106.146-6.244l-37.463-43.707c-12.488-18.732-24.976-37.463-31.22-62.439-12.488-24.976-18.732-43.707-18.732-62.439-18.732-168.585 49.951-324.683 249.756-536.976 268.488-287.22 487.024-268.488 499.512-268.488 18.732 0 37.463 6.244 62.439 18.732 18.732 6.244 43.707 18.732 56.195 37.463v0l43.707 43.707c24.976 31.22 31.22 81.171 0 112.39v0z" />
<glyph unicode="&#xe917;" glyph-name="Icon-font-24" data-tags="Icon font-24" horiz-adv-x="1029" d="M939.109 551.461h-344.87v318.342c0 42.446-37.14 79.585-79.585 79.585s-79.585-31.834-79.585-79.585v-318.342h-344.87c-42.446 0-79.585-37.14-79.585-79.585s37.14-79.585 79.585-79.585h344.87v-371.399c0-42.446 37.14-79.585 79.585-79.585s79.585 37.14 79.585 79.585v371.399h344.87c42.446 0 79.585 37.14 79.585 79.585s-37.14 79.585-79.585 79.585z" />
<glyph unicode="&#xe918;" glyph-name="Icon-font-25" data-tags="Icon font-25" horiz-adv-x="1016" d="M894.090 585.552h-267.463v244.537c0 61.134-53.493 114.627-114.627 114.627s-114.627-53.493-114.627-114.627v-244.537h-267.463c-61.134 0-114.627-53.493-114.627-114.627s53.493-114.627 114.627-114.627h267.463v-290.388c0-61.134 53.493-114.627 114.627-114.627s114.627 53.493 114.627 114.627v290.388h267.463c61.134 0 114.627 53.493 114.627 114.627s-53.493 114.627-114.627 114.627z" />
<glyph unicode="&#xe919;" glyph-name="Icon-font-26" data-tags="Icon font-26" d="M297.891 192c-9.309 0-18.618 0-23.273 9.309-13.964 13.964-13.964 32.582 0 46.545l437.527 437.527c13.964 13.964 32.582 13.964 46.545 0s13.964-32.582 0-46.545l-437.527-437.527c-9.309-9.309-13.964-9.309-23.273-9.309zM358.4 471.273c-69.818 0-125.673 55.855-125.673 125.673s55.855 125.673 125.673 125.673c69.818 0 125.673-55.855 125.673-125.673s-55.855-125.673-125.673-125.673zM358.4 657.455c-37.236 0-65.164-27.927-65.164-60.509s27.927-60.509 60.509-60.509c37.236 0 65.164 27.927 65.164 60.509s-27.927 60.509-60.509 60.509zM642.327-45.382c-27.927 0-51.2 9.309-74.473 23.273-18.618 9.309-37.236 18.618-55.855 18.618-13.964 0-32.582-9.309-55.855-18.618s-51.2-23.273-74.473-23.273c-9.309 0-18.618 0-27.927 4.655-37.236 13.964-55.855 46.545-74.473 74.473-9.309 18.618-18.618 37.236-32.582 41.891-9.309 9.309-32.582 13.964-51.2 18.618-32.582 9.309-74.473 13.964-93.091 46.545-23.273 32.582-18.618 69.818-13.964 102.4 0 18.618 4.655 41.891 0 55.855s-18.618 27.927-32.582 41.891c-23.273 27.927-51.2 55.855-51.2 93.091s27.927 69.818 51.2 97.745c13.964 18.618 27.927 32.582 32.582 46.545s4.655 32.582 0 55.855c-4.655 32.582-4.655 69.818 13.964 102.4 23.273 32.582 60.509 37.236 93.091 46.545 18.618 4.655 41.891 9.309 51.2 18.618 13.964 4.655 27.927 23.273 37.236 41.891 18.618 27.927 37.236 65.164 74.473 74.473 9.309 4.655 13.964 4.655 23.273 4.655 27.927 0 51.2-9.309 74.473-23.273 18.618-9.309 37.236-18.618 55.855-18.618s32.582 9.309 55.855 18.618c23.273 9.309 51.2 23.273 74.473 23.273 9.309 0 18.618 0 27.927-4.655 37.236-13.964 55.855-46.545 74.473-74.473 9.309-18.618 18.618-37.236 32.582-41.891 9.309-9.309 32.582-13.964 51.2-18.618 32.582-9.309 74.473-13.964 93.091-46.545 23.273-32.582 18.618-69.818 13.964-102.4 0-18.618-4.655-41.891 0-55.855s18.618-27.927 32.582-41.891c23.273-27.927 51.2-55.855 51.2-97.745s-27.927-69.818-51.2-93.091c-13.964-13.964-27.927-27.927-32.582-41.891s-4.655-32.582 0-55.855c4.655-32.582 9.309-74.473-13.964-102.4-23.273-32.582-60.509-37.236-93.091-46.545-18.618-4.655-41.891-9.309-51.2-18.618s-23.273-27.927-32.582-41.891c-18.618-27.927-37.236-65.164-74.473-74.473-9.309-9.309-18.618-9.309-27.927-9.309zM512 57.018c27.927 0 55.855-9.309 79.127-23.273 23.273-9.309 46.545-18.618 55.855-13.964 13.964 4.655 27.927 27.927 37.236 46.545 13.964 23.273 27.927 46.545 51.2 60.509s51.2 23.273 74.473 27.927c23.273 4.655 51.2 9.309 55.855 23.273 9.309 9.309 4.655 37.236 4.655 60.509-4.655 27.927-4.655 55.855 4.655 79.127s27.927 46.545 41.891 65.164c18.618 18.618 32.582 37.236 32.582 51.2s-18.618 32.582-32.582 51.2c-18.618 18.618-37.236 41.891-41.891 65.164-9.309 27.927-4.655 55.855-4.655 79.127s4.655 51.2-4.655 60.509c-9.309 9.309-32.582 18.618-55.855 23.273-27.927 4.655-55.855 13.964-74.473 27.927-23.273 13.964-37.236 37.236-51.2 60.509s-23.273 41.891-37.236 46.545c-13.964 4.655-37.236-4.655-55.855-13.964-23.273-9.309-51.2-23.273-79.127-23.273s-55.855 9.309-79.127 23.273c-23.273 9.309-46.545 18.618-55.855 13.964-13.964-4.655-27.927-27.927-37.236-46.545-13.964-13.964-27.927-37.236-51.2-51.2-23.273-18.618-51.2-23.273-74.473-27.927s-51.2-13.964-60.509-23.273c-4.655-9.309-4.655-37.236 0-60.509 0-27.927 4.655-55.855-4.655-79.127-9.309-27.927-27.927-46.545-41.891-65.164-18.618-18.618-32.582-37.236-32.582-51.2s18.618-32.582 32.582-51.2c18.618-18.618 37.236-41.891 41.891-65.164 9.309-27.927 4.655-55.855 4.655-79.127s-4.655-51.2 4.655-60.509c9.309-9.309 32.582-18.618 55.855-23.273 27.927-4.655 51.2-13.964 74.473-27.927s37.236-37.236 51.2-60.509c13.964-23.273 23.273-41.891 37.236-46.545s37.236 4.655 55.855 13.964c27.927 0 51.2 13.964 79.127 13.964zM674.909 154.764c-69.818 0-125.673 55.855-125.673 125.673s55.855 125.673 125.673 125.673 125.673-55.855 125.673-125.673-60.509-125.673-125.673-125.673zM674.909 340.945c-32.582 0-60.509-27.927-60.509-60.509s27.927-60.509 60.509-60.509c32.582 0 60.509 27.927 60.509 60.509s-27.927 60.509-60.509 60.509z" />
<glyph unicode="&#xe91a;" glyph-name="Icon-font-27" data-tags="Icon font-27" horiz-adv-x="1013" d="M506.343 940.199c-271.558 0-495.028-220.641-495.028-495.028s220.641-495.028 495.028-495.028c274.387 0 495.028 220.641 495.028 495.028s-220.641 495.028-495.028 495.028v0zM752.442 555.492v-16.972c0-161.238-121.635-347.934-347.934-347.934-67.89 0-132.95 19.801-186.696 53.746 8.486 0 19.801-2.829 28.287-2.829 56.575 0 110.32 19.801 152.751 50.917-53.746 0-99.006 36.773-113.149 84.862 8.486-2.829 14.144-2.829 22.63-2.829 11.315 0 22.63 2.829 31.116 5.657-56.575 11.315-99.006 59.403-99.006 118.807v8.486c16.972-8.486 33.945-14.144 53.746-14.144-33.945 22.63-53.746 59.403-53.746 101.834 0 22.63 5.657 42.431 16.972 62.232 59.403-73.547 149.923-121.635 251.757-127.293 0 5.657 0 14.144 0 25.459 0 67.89 53.746 121.635 121.635 121.635 33.945 0 67.89-14.144 90.519-39.602 28.287 5.657 53.746 14.144 76.376 28.287-8.486-28.287-28.287-50.917-53.746-67.89 25.459 2.829 48.088 8.486 70.718 19.801-16.972-22.63-36.773-45.26-62.232-62.232v0z" />
<glyph unicode="&#xe91b;" glyph-name="Icon-font-28" data-tags="Icon font-28" horiz-adv-x="1021" d="M280.044 408.398h39.602v-212.155h36.773v212.155h39.602v33.945h-115.978v-33.945zM594.033 382.939c-11.315 0-22.63-5.657-33.945-19.801v82.033h-33.945v-248.928h33.945v16.972c11.315-14.144 22.63-19.801 33.945-19.801 14.144 0 22.63 5.657 25.459 19.801 2.829 8.486 2.829 22.63 2.829 39.602v73.547c0 16.972 0 28.287-2.829 36.773-2.829 11.315-14.144 19.801-25.459 19.801v0zM588.376 249.989c0-16.972-5.657-25.459-14.144-25.459-5.657 0-11.315 2.829-16.972 8.486v113.149c5.657 5.657 11.315 8.486 16.972 8.486 8.486 0 14.144-8.486 14.144-25.459v-79.204zM463.912 238.674c-8.486-11.315-14.144-16.972-19.801-16.972s-5.657 2.829-8.486 8.486c0 0 0 5.657 0 14.144v135.779h-33.945v-144.265c0-14.144 0-22.63 2.829-28.287 2.829-8.486 11.315-14.144 22.63-14.144s25.459 8.486 36.773 22.63v-19.801h33.945v183.867h-33.945v-141.436zM492.199 549.834c11.315 0 16.972 8.486 16.972 25.459v79.204c0 16.972-5.657 25.459-16.972 25.459s-16.972-8.486-16.972-25.459v-79.204c0-16.972 5.657-25.459 16.972-25.459v0zM514.829 940.199c-274.387 0-495.028-220.641-495.028-495.028s220.641-495.028 495.028-495.028c274.387 0 495.028 220.641 495.028 495.028s-223.47 495.028-495.028 495.028v0zM568.575 708.243h33.945v-135.779c0-8.486 0-11.315 0-14.144 0-5.657 2.829-8.486 8.486-8.486s14.144 5.657 22.63 16.972v141.436h33.945v-186.696h-33.945v19.801c-14.144-14.144-25.459-22.63-39.602-22.63-11.315 0-16.972 5.657-22.63 14.144-2.829 5.657-2.829 14.144-2.829 28.287v147.094zM441.282 648.84c0 19.801 2.829 33.945 11.315 42.431 8.486 14.144 22.63 19.801 39.602 19.801s31.116-5.657 39.602-19.801c5.657-8.486 11.315-22.63 11.315-42.431v-65.061c0-19.801-2.829-33.945-11.315-42.431-8.486-11.315-22.63-19.801-39.602-19.801s-31.116 5.657-39.602 19.801c-8.486 8.486-11.315 22.63-11.315 42.431v65.061zM350.762 773.304l25.459-99.006 25.459 99.006h36.773l-42.431-149.923v-101.834h-36.773v101.834c-2.829 16.972-11.315 45.26-22.63 79.204-8.486 22.63-16.972 45.26-22.63 70.718h36.773zM780.729 179.271c-5.657-28.287-31.116-50.917-59.403-53.746-67.89-8.486-138.608-8.486-206.497-8.486s-138.608 0-206.497 8.486c-28.287 2.829-53.746 25.459-59.403 53.746-8.486 42.431-8.486 87.691-8.486 130.122s0 87.691 8.486 130.122c5.657 28.287 31.116 50.917 59.403 53.746 67.89 8.486 138.608 8.486 206.497 8.486s138.608 0 206.497-8.486c28.287-2.829 53.746-25.459 59.403-53.746 8.486-42.431 8.486-87.691 8.486-130.122s0-87.691-8.486-130.122v0zM698.696 382.939c-16.972 0-31.116-5.657-39.602-19.801-5.657-8.486-11.315-22.63-11.315-42.431v-65.061c0-19.801 2.829-33.945 11.315-42.431 8.486-11.315 22.63-19.801 39.602-19.801s31.116 5.657 39.602 19.801c2.829 5.657 5.657 11.315 8.486 19.801 0 2.829 0 11.315 0 22.63v5.657h-33.945c0-14.144 0-19.801 0-22.63 0-11.315-5.657-14.144-14.144-14.144-11.315 0-16.972 8.486-16.972 25.459v31.116h67.89v36.773c0 19.801-2.829 33.945-11.315 42.431-8.486 16.972-22.63 22.63-39.602 22.63v0zM715.669 309.392h-33.945v16.972c0 16.972 5.657 25.459 16.972 25.459s16.972-8.486 16.972-25.459v-16.972z" />
<glyph unicode="&#xe91c;" glyph-name="Icon-font-29" data-tags="Icon font-29" horiz-adv-x="1013" d="M503.514 940.199c-271.558 0-495.028-220.641-495.028-495.028s220.641-495.028 495.028-495.028c274.387 0 495.028 220.641 495.028 495.028s-220.641 495.028-495.028 495.028v0zM755.271 391.425c22.63-22.63 48.088-42.431 67.89-67.89 8.486-11.315 16.972-22.63 25.459-33.945 8.486-16.972 0-39.602-14.144-39.602h-101.834c-25.459-2.829-48.088 8.486-65.061 25.459-14.144 14.144-28.287 28.287-39.602 45.26-5.657 5.657-11.315 11.315-16.972 16.972-14.144 8.486-25.459 5.657-33.945-8.486-11.315-16.972-11.315-33.945-14.144-48.088 0-22.63-8.486-31.116-31.116-31.116-50.917-2.829-99.006 2.829-144.265 31.116-39.602 22.63-70.718 53.746-99.006 90.519-53.746 70.718-93.348 149.923-127.293 229.127-8.486 16.972-2.829 28.287 16.972 28.287 33.945 0 65.061 0 99.006 0 14.144 0 22.63-8.486 28.287-19.801 16.972-45.26 39.602-84.862 67.89-124.464 8.486-11.315 14.144-19.801 25.459-28.287s19.801-5.657 25.459 8.486c2.829 8.486 5.657 16.972 5.657 25.459 2.829 31.116 2.829 62.232-2.829 90.519-2.829 19.801-14.144 31.116-33.945 33.945-8.486 2.829-8.486 5.657-2.829 11.315 8.486 8.486 16.972 14.144 31.116 14.144h115.978c16.972-2.829 22.63-11.315 25.459-31.116v-127.293c0-5.657 2.829-28.287 16.972-33.945 11.315-2.829 16.972 5.657 22.63 11.315 28.287 28.287 48.088 62.232 65.061 99.006 8.486 16.972 14.144 31.116 19.801 48.088 5.657 11.315 11.315 16.972 25.459 16.972h110.32c2.829 0 5.657 0 8.486 0 19.801-2.829 22.63-11.315 16.972-28.287-8.486-28.287-25.459-50.917-45.26-76.376s-36.773-50.917-56.575-76.376c-14.144-19.801-11.315-31.116 8.486-50.917v0z" />
<glyph unicode="&#xe91d;" glyph-name="Icon-font-30" data-tags="Icon font-30" horiz-adv-x="1013" d="M432.796 148.155c0-73.547-45.26-130.122-172.552-135.779-73.547 42.431-135.779 104.663-181.039 178.21 22.63 56.575 93.348 99.006 175.381 99.006 22.63 0 45.26-2.829 65.061-11.315 53.746-36.773 99.006-62.232 107.492-104.663 5.657-5.657 5.657-14.144 5.657-25.459v0zM506.343 940.199c-144.265 0-271.558-59.403-362.077-158.409 36.773 19.801 79.204 31.116 121.635 31.116h248.928l-56.575-59.403h-65.061c45.26-25.459 70.718-79.204 70.718-141.436 0-53.746-31.116-99.006-73.547-132.95s-50.917-45.26-50.917-73.547c0-22.63 50.917-59.403 73.547-76.376 79.204-59.403 96.177-99.006 96.177-172.552 0-76.376-67.89-152.751-181.039-178.21 53.746-19.801 113.149-31.116 175.381-31.116 274.387 0 495.028 220.641 495.028 495.028 2.829 277.215-217.812 497.856-492.199 497.856v0zM752.442 569.635v-124.464h-62.232v124.464h-124.464v62.232h124.464v121.635h62.232v-124.464h124.464v-62.232h-124.464zM364.906 612.066c11.315-87.691-28.287-144.265-93.348-141.436-67.89 2.829-130.122 62.232-141.436 149.923s31.116 155.58 99.006 152.751c67.89 0 124.464-73.547 135.779-161.238v0zM223.47 320.707c-73.547 0-132.95-25.459-175.381-62.232-22.63 56.575-36.773 121.635-36.773 186.696 0 53.746 8.486 107.492 25.459 158.409 8.486-96.177 73.547-169.724 186.696-169.724 8.486 0 16.972 0 25.459 0-8.486-14.144-14.144-31.116-14.144-48.088 0-28.287 16.972-45.26 36.773-65.061-16.972 0-31.116 0-48.088 0v0z" />
<glyph unicode="&#xe91e;" glyph-name="Icon-font-31" data-tags="Icon font-31" horiz-adv-x="1007" d="M503.56 940.308c-270.066 0-492.308-219.429-492.308-492.308 0-270.066 219.429-492.308 492.308-492.308 270.066 0 492.308 219.429 492.308 492.308s-219.429 492.308-492.308 492.308v0zM627.341 431.121h-78.769v-286.945h-118.154v286.945h-56.264v101.275h56.264v64.703c0 47.824 22.505 120.967 120.967 120.967h87.209v-98.462h-64.703c-11.253 0-25.319-5.626-25.319-28.132v-59.077h90.022l-11.253-101.275z" />
<glyph unicode="&#xe91f;" glyph-name="Icon-font-32" data-tags="Icon font-32" horiz-adv-x="1016" d="M70.33 670.242v0c0 0 0 0 0 0s0 0 0 0zM512 940.308c-64.703 0-129.407-11.253-188.484-36.571 0 0-5.626-2.813-16.879-5.626l399.473-402.286 33.758-146.286 33.758-151.912-151.912 30.945-146.286 33.758-405.099 407.912c-5.626-11.253-8.44-19.692-8.44-19.692-28.132-64.703-45.011-132.22-45.011-202.549 0-270.066 222.242-492.308 492.308-492.308s492.308 222.242 492.308 492.308c2.813 272.879-219.429 492.308-489.495 492.308zM306.637 895.297v0 0zM722.989 360.791l-25.319 112.527c-90.022-42.198-160.352-112.527-199.736-199.736l112.527-25.319c22.505 47.824 61.89 90.022 112.527 112.527z" />
<glyph unicode="&#xe920;" glyph-name="Icon-font-33" data-tags="Icon font-33" horiz-adv-x="1007" d="M500.747 940.308c-270.066 0-492.308-219.429-492.308-492.308s219.429-492.308 492.308-492.308c272.879 0 492.308 219.429 492.308 492.308s-219.429 492.308-492.308 492.308zM331.956 695.56c25.319 0 45.011-19.692 45.011-45.011s-19.692-45.011-45.011-45.011c-25.319 0-45.011 19.692-45.011 45.011 0 22.505 19.692 45.011 45.011 45.011zM379.78 265.143h-92.835v306.637h92.835v-306.637zM748.308 265.143h-92.835v168.791c0 33.758-11.253 67.516-50.637 67.516s-73.143-33.758-73.143-70.33v-165.978h-92.835v309.451h92.835v-42.198c28.132 36.571 67.516 53.451 112.527 53.451s101.275-22.505 101.275-143.473v-177.231z" />
<glyph unicode="&#xe921;" glyph-name="Icon-font-34" data-tags="Icon font-34" d="M507.763 363.255h-40.254v42.372c0 8.474-3.531 16.243-11.299 21.892s-16.949 9.181-28.248 9.181h-25.423v-73.446h-40.254v176.552h40.254v-72.033h25.423c11.299 0 20.48 2.825 28.248 8.474s11.299 13.418 11.299 21.892v41.666h40.254v-41.666c0-18.361-9.181-33.898-26.836-46.61 17.655-12.712 26.836-28.248 26.836-46.61v-41.666zM673.015 476.954c0-17.655-7.768-31.779-23.305-43.785s-33.898-17.655-56.497-17.655h-24.717v-52.259h-40.254v177.258h65.677c22.599 0 40.96-7.062 56.497-19.068 14.83-12.006 22.599-26.836 22.599-44.491zM632.761 476.954c0 8.474-3.531 16.243-11.299 21.892s-16.949 9.181-28.248 9.181h-25.423v-61.44h25.423c11.299 0 20.48 2.825 27.542 8.474 7.768 6.356 12.006 13.418 12.006 21.892zM1019.057 505.203h-60.734v-142.654h-40.254v142.654h-60.028v34.604h160.309l0.706-34.604zM687.846 362.549h40.254l73.446 113.699v-113.699h40.254v177.258h-40.254l-74.152-117.23v117.23h-40.254l0.706-177.258zM199.857 515.090c-12.712 8.474-26.836 12.712-41.666 12.712-30.367 0-57.203-18.361-69.914-45.903h139.829c-7.062 13.418-16.243 25.423-28.248 33.192zM157.484 605.484c-85.451 0-154.659-69.914-154.659-155.366s69.208-155.366 154.659-155.366c85.451 0 154.659 69.914 154.659 155.366s-69.208 155.366-154.659 155.366zM140.535 374.554c17.655-4.237 36.723-2.119 52.966 7.062 7.768 4.237 14.124 9.181 19.774 15.537 4.943 5.65 9.181 12.006 12.712 18.361h40.96c-3.531-7.768-6.356-16.243-10.593-23.305-19.068-31.073-52.259-52.966-88.276-55.79-37.429-2.825-74.152 12.712-98.163 41.666-24.011 27.542-32.486 67.796-21.892 103.812 9.887 34.604 36.017 63.559 69.914 76.27 35.31 13.418 76.27 7.768 106.637-14.124 14.124-10.593 26.13-24.011 34.604-39.548 8.474-16.949 13.418-36.017 13.418-55.084 0-0.706 0-4.943 0-4.943h-190.676c1.412-33.192 26.836-62.852 58.615-69.914z" />
<glyph unicode="&#xe922;" glyph-name="Icon-font-35" data-tags="Icon font-35" d="M691.976-36.073c-18.618 0-37.236 9.309-49.648 24.824l-372.364 487.176 372.364 456.145c21.721 27.927 62.061 31.030 86.885 9.309 27.927-21.721 31.030-62.061 9.309-86.885l-310.303-381.673 313.406-409.6c21.721-27.927 15.515-65.164-12.412-86.885-9.309-9.309-24.824-12.412-37.236-12.412z" />
<glyph unicode="&#xe923;" glyph-name="Icon-font-36" data-tags="Icon font-36" d="M335.127-36.073c18.618 0 37.236 9.309 49.648 24.824l372.364 487.176-372.364 456.145c-21.721 27.927-62.061 31.030-86.885 9.309-27.927-21.721-31.030-62.061-9.309-86.885l310.303-381.673-313.406-409.6c-21.721-27.927-15.515-65.164 12.412-86.885 12.412-9.309 24.824-12.412 37.236-12.412z" />
<glyph unicode="&#xe924;" glyph-name="Icon-font-37" data-tags="Icon font-37" d="M79.644 513.422c22.756-17.067 48.356-31.289 73.956-42.667 11.378-5.689 25.6-11.378 36.978-14.222 25.6-11.378 36.978-19.911 56.889-34.133 5.689-5.689 5.689-5.689-2.844-2.844-28.444 5.689-54.044-36.978-25.6-62.578 28.444-22.756 62.578-19.911 91.022 2.844 8.533 5.689 14.222 14.222 17.067 25.6 2.844 8.533 5.689 11.378 11.378 2.844 31.289-36.978 62.578-68.267 96.711-85.333 8.533-2.844 14.222-14.222 14.222-22.756v-102.4c0-2.844 0-5.689 0-8.533 0-5.689-5.689-8.533-14.222-8.533h-68.267c-22.756 0-39.822-17.067-39.822-39.822v-71.111c0-22.756 17.067-39.822 39.822-39.822h273.067c22.756 0 39.822 17.067 39.822 39.822v65.422c0 22.756-17.067 39.822-39.822 39.822h-68.267c-8.533 0-14.222 2.844-14.222 8.533 0 2.844 0 5.689 0 8.533v102.4c0 8.533 5.689 19.911 14.222 22.756 34.133 17.067 68.267 48.356 96.711 85.333 5.689 5.689 8.533 5.689 11.378-2.844s8.533-17.067 17.067-25.6c28.444-22.756 62.578-28.444 91.022-2.844 28.444 22.756 2.844 68.267-25.6 62.578-8.533-2.844-8.533-2.844-2.844 2.844 17.067 14.222 31.289 25.6 56.889 34.133 11.378 5.689 25.6 11.378 36.978 14.222 25.6 11.378 51.2 25.6 73.956 42.667 42.667 31.289 62.578 79.644 68.267 128 11.378 88.178-54.044 159.289-133.689 184.889-8.533 2.844-14.222 11.378-14.222 19.911s2.844 19.911 2.844 28.444c0 8.533-5.689 17.067-17.067 17.067h-659.911c-8.533 0-17.067-8.533-17.067-17.067s0-19.911 2.844-28.444c0-8.533-5.689-17.067-14.222-19.911-79.644-17.067-145.067-91.022-133.689-179.2 5.689-48.356 25.6-96.711 68.267-128v0zM753.778 507.733c39.822 76.8 68.267 162.133 88.178 241.778 2.844 8.533 11.378 14.222 19.911 11.378 82.489-34.133 113.778-147.911 22.756-204.8-34.133-22.756-82.489-34.133-122.311-54.044-11.378-2.844-14.222-2.844-8.533 5.689v0zM546.133 789.333v-301.511c0-14.222-11.378-28.444-28.444-28.444v0c-14.222 0-28.444 11.378-28.444 28.444v247.467l-48.356-25.6c-11.378-5.689-28.444 0-31.289 14.222v0c-2.844 8.533 2.844 19.911 11.378 25.6l108.089 54.044c8.533 2.844 17.067-2.844 17.067-14.222zM156.444 760.889c8.533 2.844 17.067-2.844 19.911-11.378 17.067-76.8 48.356-164.978 88.178-241.778 2.844-8.533 0-11.378-5.689-5.689-42.667 19.911-88.178 31.289-125.156 54.044-91.022 54.044-59.733 167.822 22.756 204.8v0z" />
<glyph unicode="&#xe925;" glyph-name="Icon-font-38" data-tags="Icon font-38" d="M48.356 692.622c-25.6-22.756-36.978-51.2-36.978-85.333v-446.578c0-34.133 11.378-62.578 36.978-85.333s54.044-34.133 88.178-34.133h17.067v688.356h-17.067c-34.133 0-65.422-14.222-88.178-36.978v0zM722.489 814.933c0 14.222-5.689 25.6-14.222 36.978-11.378 11.378-22.756 14.222-36.978 14.222h-321.422c-14.222 0-28.444-5.689-36.978-14.222-11.378-11.378-14.222-22.756-14.222-36.978v-85.333h-91.022v-688.356h603.022v688.356h-88.178v85.333zM366.933 797.867h284.444v-68.267h-284.444v68.267zM722.489 334.222c0-5.689-2.844-8.533-5.689-11.378s-8.533-5.689-11.378-5.689h-125.156v-119.467c0-5.689-2.844-8.533-5.689-11.378s-8.533-5.689-11.378-5.689h-108.089c-5.689 0-8.533 2.844-11.378 5.689s-5.689 8.533-5.689 11.378v119.467h-125.156c-5.689 0-8.533 2.844-11.378 5.689s-5.689 8.533-5.689 11.378v102.4c0 5.689 2.844 8.533 5.689 11.378s8.533 5.689 11.378 5.689h125.156v119.467c0 5.689 2.844 8.533 5.689 11.378 2.844 5.689 5.689 5.689 11.378 5.689h105.244c5.689 0 8.533-2.844 11.378-5.689s5.689-8.533 5.689-11.378v-119.467h125.156c5.689 0 8.533-2.844 11.378-5.689s5.689-8.533 5.689-11.378l2.844-102.4zM969.956 692.622c-25.6 22.756-54.044 34.133-88.178 34.133h-17.067v-688.356h17.067c34.133 0 62.578 11.378 88.178 34.133s36.978 51.2 36.978 85.333v449.422c0 34.133-14.222 62.578-36.978 85.333v0z" />
<glyph unicode="&#xe926;" glyph-name="Icon-font-39" data-tags="Icon font-39" d="M915.911 590.222c-31.289 0-56.889-25.6-56.889-56.889s25.6-56.889 56.889-56.889c31.289 0 56.889 25.6 56.889 56.889s-25.6 56.889-56.889 56.889v0zM108.089 590.222c-31.289 0-56.889-25.6-56.889-56.889s25.6-56.889 56.889-56.889c31.289 0 56.889 25.6 56.889 56.889-2.844 31.289-25.6 56.889-56.889 56.889v0zM748.089 692.622c-45.511 0-82.489-36.978-82.489-85.333 0-45.511 36.978-85.333 82.489-85.333s82.489 36.978 82.489 85.333c0 48.356-36.978 85.333-82.489 85.333v0zM273.067 692.622c-45.511 0-82.489-36.978-82.489-85.333 0-45.511 36.978-85.333 82.489-85.333s82.489 36.978 82.489 85.333c2.844 48.356-34.133 85.333-82.489 85.333v0zM512 860.444c-68.267 0-122.311-56.889-122.311-125.156s54.044-125.156 122.311-125.156c68.267 0 125.156 56.889 125.156 125.156-2.844 68.267-56.889 125.156-125.156 125.156v0zM807.822 115.2v0c-39.822 0-73.956 34.133-73.956 73.956v196.267c0 36.978-8.533 71.111-25.6 102.4 31.289 8.533 68.267 11.378 110.933-22.756 39.822-31.289 59.733-82.489 59.733-133.689v-139.378c2.844-45.511-28.444-76.8-71.111-76.8zM287.289 382.578v-196.267c0-39.822-31.289-73.956-73.956-73.956v0c-39.822 0-73.956 34.133-73.956 73.956v147.911c0 56.889 28.444 110.933 76.8 136.533 36.978 22.756 68.267 19.911 93.867 11.378-14.222-28.444-22.756-62.578-22.756-99.556v0zM110.933 359.822v-130.844c0-28.444-22.756-48.356-48.356-48.356v0c-28.444 0-48.356 22.756-48.356 48.356v99.556c0 36.978 19.911 73.956 51.2 93.867 25.6 14.222 45.511 14.222 65.422 8.533-14.222-22.756-19.911-45.511-19.911-71.111v0zM910.222 376.889c0 25.6-5.689 48.356-17.067 68.267 19.911 5.689 39.822 8.533 65.422-8.533 31.289-19.911 51.2-54.044 51.2-93.867v-99.556c0-28.444-22.756-48.356-48.356-48.356v0c-28.444 0-48.356 22.756-48.356 48.356v133.689h-2.844zM389.689 35.556h241.778c39.822 0 73.956 34.133 73.956 73.956v261.689c0 102.4-73.956 196.267-173.511 204.8-116.622 11.378-213.333-79.644-213.333-193.422v-273.067c0-39.822 31.289-73.956 71.111-73.956z" />
<glyph unicode="&#xe927;" glyph-name="Icon-font-40" data-tags="Icon font-40" d="M769.384 827.157h-24.908v-606.097c0-41.514-33.211-71.957-74.724-71.957h-448.346v-22.141c0-24.908 22.141-47.049 47.049-47.049h500.93c24.908 0 47.049 22.141 47.049 47.049v653.146c0 24.908-22.141 47.049-47.049 47.049v0zM392.995 196.151h254.616c24.908 0 47.049 22.141 47.049 47.049v661.449c0 24.908-22.141 47.049-47.049 47.049h-337.643v-16.605c0-2.768 0-2.768 0-5.535v-130.076c0-35.978-30.443-66.422-66.422-66.422h-130.076c0 0-2.768 0-2.768 0h-19.373v-492.627c0-24.908 22.141-47.049 47.049-47.049h254.616zM110.703 785.643h116.238c19.373 0 35.978 16.605 35.978 33.211v116.238c0 11.070-8.303 16.605-19.373 16.605-5.535 0-8.303-2.768-13.838-5.535l-132.843-130.076c-11.070-11.070-2.768-30.443 13.838-30.443v0zM877.319 702.616h-24.908v-606.097c0-41.514-33.211-71.957-74.724-71.957h-451.114v-22.141c0-24.908 22.141-47.049 47.049-47.049h500.93c24.908 0 47.049 22.141 47.049 47.049v653.146c0 24.908-19.373 47.049-44.281 47.049v0z" />
<glyph unicode="&#xe928;" glyph-name="Icon-font-41" data-tags="Icon font-41" d="M970.24 473.6h-926.72c-20.48 0-35.84 15.36-35.84 35.84v0c0 20.48 15.36 35.84 35.84 35.84h926.72c20.48 0 35.84-15.36 35.84-35.84v0c0-20.48-15.36-35.84-35.84-35.84zM878.080 832h-66.56c-15.36 0-28.16-7.68-35.84-20.48-5.12-10.24-17.92-17.92-30.72-17.92s-23.040 7.68-30.72 17.92c-7.68 12.8-23.040 20.48-35.84 20.48h-40.96c-15.36 0-28.16-7.68-35.84-20.48-5.12-10.24-17.92-17.92-30.72-17.92s-23.040 7.68-30.72 17.92c-7.68 12.8-23.040 20.48-35.84 20.48h-35.84c-15.36 0-28.16-7.68-35.84-20.48-5.12-10.24-17.92-17.92-30.72-17.92s-23.040 7.68-30.72 17.92c-7.68 12.8-23.040 20.48-35.84 20.48h-25.6c-15.36 0-28.16-7.68-35.84-20.48-5.12-7.68-17.92-15.36-30.72-15.36s-23.040 7.68-30.72 17.92c-7.68 12.8-20.48 17.92-35.84 17.92h-51.2c-25.6 0-48.64-20.48-48.64-48.64v-192h847.36v194.56c2.56 25.6-20.48 46.080-46.080 46.080zM79.36 424.96v-302.080c0-30.72 25.6-56.32 56.32-56.32h43.52c17.92 0 33.28 7.68 46.080 23.040 7.68 7.68 17.92 12.8 28.16 12.8s20.48-5.12 28.16-12.8c10.24-12.8 28.16-23.040 46.080-23.040h10.24c17.92 0 33.28 7.68 46.080 23.040 7.68 7.68 17.92 12.8 28.16 12.8s20.48-5.12 28.16-12.8c10.24-12.8 28.16-23.040 46.080-23.040h20.48c17.92 0 33.28 7.68 46.080 23.040 7.68 7.68 17.92 12.8 28.16 12.8s20.48-5.12 28.16-12.8c10.24-12.8 28.16-23.040 46.080-23.040h25.6c17.92 0 33.28 7.68 46.080 23.040 7.68 7.68 17.92 12.8 28.16 12.8s20.48-5.12 28.16-12.8c10.24-12.8 28.16-23.040 46.080-23.040h40.96c30.72 0 56.32 25.6 56.32 56.32v302.080h-847.36z" />
<glyph unicode="&#xe929;" glyph-name="Icon-font-42" data-tags="Icon font-42" d="M857.766 82.286v129.662c0 19.948-16.623 36.571-36.571 36.571h-123.013c-19.948 0-36.571-16.623-36.571-36.571v-129.662h-49.87v129.662c0 19.948-16.623 36.571-36.571 36.571h-123.013c-19.948 0-36.571-16.623-36.571-36.571v-129.662h-49.87v129.662c0 19.948-16.623 36.571-36.571 36.571h-129.662c-19.948 0-36.571-16.623-36.571-36.571v-129.662h-53.195v282.597h797.922v-282.597h-49.87zM159.584 680.727h748.052v-282.597h-49.87v129.662c0 19.948-16.623 36.571-36.571 36.571h-123.013c-19.948 0-36.571-16.623-36.571-36.571v-129.662h-49.87v129.662c0 19.948-16.623 36.571-36.571 36.571h-123.013c-19.948 0-36.571-16.623-36.571-36.571v-129.662h-49.87v129.662c0 19.948-16.623 36.571-36.571 36.571h-129.662c-19.948 0-36.571-16.623-36.571-36.571v-129.662h-53.195v282.597h49.87zM957.506 946.701c-26.597 0-49.87-23.273-49.87-49.87v-182.857h-49.87v129.662c0 19.948-16.623 36.571-36.571 36.571h-123.013c-19.948 0-36.571-16.623-36.571-36.571v-129.662h-49.87v129.662c0 19.948-16.623 36.571-36.571 36.571h-123.013c-19.948 0-36.571-16.623-36.571-36.571v-129.662h-49.87v129.662c0 19.948-16.623 36.571-36.571 36.571h-129.662c-19.948 0-36.571-16.623-36.571-36.571v-129.662h-53.195v182.857c0 26.597-23.273 49.87-49.87 49.87s-49.87-23.273-49.87-49.87v-947.532h99.74v99.74h797.922v-99.74h99.74v947.532c0 26.597-19.948 49.87-49.87 49.87v0z" />
<glyph unicode="&#xe92a;" glyph-name="Icon-font-43" data-tags="Icon font-43" d="M1002.328 404.656c2.709 16.254 2.709 29.799 2.709 46.053 0 276.317-222.138 501.164-493.037 501.164s-493.037-224.847-493.037-501.164c0-16.254 0-29.799 2.709-46.053-10.836-10.836-13.545-27.090-10.836-43.344l24.381-97.524c8.127-27.090 35.217-43.344 59.598-35.217l46.053 13.545c24.381-13.545 37.926-21.672 59.598-35.217l48.762 13.545c8.127-27.090 35.217-43.344 59.598-35.217 27.090 8.127 40.635 35.217 35.217 62.307l-73.143 287.153c-8.127 27.090-35.217 43.344-59.598 35.217-27.090-8.127-40.635-35.217-35.217-62.307l-48.762-13.545c-2.709-5.418-5.418-10.836-10.836-16.254 16.254 208.593 186.921 373.841 395.513 373.841s379.259-165.249 392.804-373.841c-2.709 5.418-5.418 10.836-10.836 16.254l-48.762 13.545c8.127 27.090-8.127 54.18-35.217 62.307s-54.18-8.127-59.598-35.217l-75.852-289.862c-8.127-27.090 8.127-54.18 35.217-62.307s54.18 8.127 59.598 35.217l48.762-13.545c21.672 13.545 35.217 21.672 56.889 32.508-56.889-100.233-154.413-173.376-265.481-200.466 0 5.418 0 8.127 0 13.545 0 54.18-43.344 100.233-97.524 100.233s-97.524-46.053-97.524-100.233c0-54.18 43.344-100.233 97.524-100.233 27.090 0 54.18 10.836 70.434 29.799 146.286 21.672 273.608 116.487 341.333 246.519v0c27.090-8.127 54.18 8.127 59.598 35.217l24.381 97.524c8.127 18.963 2.709 35.217-5.418 46.053v0z" />
<glyph unicode="&#xe92b;" glyph-name="Icon-font-44" data-tags="Icon font-44" horiz-adv-x="1034" d="M522.079 949.921c-278.173 0-503.937-225.764-503.937-503.937s225.764-503.937 503.937-503.937c278.173 0 503.937 225.764 503.937 503.937 0 280.189-225.764 503.937-503.937 503.937zM566.425 643.528l-2.016-104.819-10.079-147.15h-46.362l-10.079 147.15-2.016 104.819h70.551zM562.394 264.567c-8.063-8.063-18.142-12.094-30.236-12.094s-22.173 4.031-30.236 12.094c-8.063 8.063-12.094 18.142-12.094 32.252 0 12.094 4.031 24.189 12.094 32.252s18.142 12.094 30.236 12.094c12.094 0 22.173-4.031 30.236-12.094s12.094-20.157 12.094-32.252c0-12.094-4.031-22.173-12.094-32.252z" />
<glyph unicode="&#xe92c;" glyph-name="Icon-font-45" data-tags="Icon font-45" d="M359.952 221.479l-40.339 62.061-83.782-15.515 111.709 189.285h-217.212v-459.248c0-21.721 18.618-43.442 43.442-43.442h325.818v505.794l-139.636-238.933zM968.145 668.315c0 18.618-15.515 31.030-34.133 31.030h-211.006c15.515 6.206 27.927 15.515 37.236 21.721 43.442 31.030 68.267 68.267 65.164 105.503 0 31.030-15.515 74.473-37.236 93.091s-52.752 31.030-83.782 31.030c-34.133 0-65.164-12.412-93.091-27.927-40.339-24.824-71.37-83.782-93.091-124.121 0-3.103-3.103-3.103-3.103-6.206-9.309 15.515-18.618 49.648-27.927 65.164-18.618 24.824-40.339 49.648-68.267 68.267s-58.958 27.927-89.988 27.927c-34.133 0-65.164-12.412-86.885-34.133s-37.236-68.267-37.236-102.4c0-18.618 6.206-40.339 18.618-58.958 15.515-21.721 37.236-43.442 71.37-58.958h-189.285c-21.721 0-37.236-15.515-37.236-37.236v-127.224c0-18.618 15.515-37.236 37.236-37.236h384.776v201.697h52.752v-198.594h390.982c18.618 0 34.133 15.515 34.133 31.030v136.533zM310.303 761.406c-18.618 12.412-27.927 21.721-34.133 31.030s-9.309 24.824-9.309 34.133c0 12.412 6.206 37.236 18.618 46.545 12.412 12.412 27.927 18.618 43.442 18.618v0c18.618 0 37.236-6.206 55.855-18.618 27.927-18.618 55.855-65.164 71.37-102.4 9.309-18.618 15.515-37.236 21.721-55.855-80.679 9.309-136.533 27.927-167.564 46.545v0zM598.885 804.848c15.515 21.721 34.133 55.855 52.752 68.267s37.236 18.618 55.855 18.618v0c15.515 0 31.030-6.206 40.339-15.515 12.412-9.309 18.618-24.824 18.618-37.236s-6.206-43.442-40.339-68.267c-31.030-21.721-86.885-43.442-167.564-58.958 6.206 31.030 21.721 65.164 40.339 93.091v0zM803.685 271.127l-83.782 12.412-40.339-62.061-136.533 235.83v-496.485h322.715c24.824 0 43.442 18.618 43.442 43.442v456.145h-217.212l111.709-189.285z" />
<glyph unicode="&#xe92d;" glyph-name="Icon-font-46" data-tags="Icon font-46" d="M1001.326 8.587l-217.585 213.723c70.393 77.648 113.693 180.283 113.693 293.098 0 241.108-196.169 437.277-437.277 437.277s-437.307-196.169-437.307-437.277 196.169-437.277 437.277-437.277c96.695 0 185.841 31.92 258.341 85.255l221.36-217.439 61.499 62.64zM110.621 515.408c0 192.717 156.789 349.506 349.535 349.506 192.717 0 349.506-156.789 349.506-349.506s-156.789-349.506-349.506-349.506c-192.746-0.029-349.535 156.76-349.535 349.506z" />
</font>
</defs>
</svg>
